M48
;Layer_Color=9474304
;FILE_FORMAT=4:4
METRIC,LZ
;TYPE=PLATED
T1F00S00C0.3302
T2F00S00C0.7112
T3F00S00C1.0000
T4F00S00C1.0668
T5F00S00C1.1938
T6F00S00C1.3000
;TYPE=NON_PLATED
T7F00S00C3.1750
%
T01
X-00035Y0
X-00034912Y001268
X-00035Y002536
X00035Y00317
X00035082Y001902
X00035Y000634
X-00926Y00525
X-00927Y00602
Y00688
X-00823Y00685
X-00834Y00659
X-00764Y006658
Y007166
Y007674
Y008182
Y00615
Y00576
X-007132
X-006624
X-00742Y0052
X-00439Y00518
X-004215
X-00404
X-003865
X-004084Y00576
X-00333
X-003068
X-00256
X-00288Y00667
Y00687
X-003082Y00716
X-002574
X-002066
X-0013Y00692
X-00109Y00702
X-001165Y00518035
X-00134
X-001515
X-00169
X-00099
X-00371Y00667
X-00386
Y00687
X-00371Y00696
X-00359Y00716
X-00424Y0065
X-0007Y00641
X-000545Y00629035
X-00061Y00618498
X-00079Y00613035
X-0009125Y00619035
X-0009Y00575498
X-00061
X-00061Y00524035
X-00047
X-0003Y00510035
X-00029Y00452035
X-000135
X0
X000135
X00027
X000425
X0003Y00510035
X00047Y00524035
X00061
X00076Y00518035
X000935
X00111
X001285
X00146
X001635
X00181
X001985
X00216
X002335
X00251
X002685
X00286
X003035
X002615Y00578
Y0061075
X00276Y00615
X00245Y00632
X00217Y00624
X00224Y00611
X00166Y00618035
X00154Y00628498
X00131Y00622
X001405Y00593
X00159Y00594498
X00174
X0017Y00576
X00182Y00569
X00153Y00559
X00098Y00547785
X00107Y00538035
X00084Y00559
Y0058
X00101Y00593
X00081Y00613095
X00097Y00651
X00092Y0068
X00095Y00698
X00083Y00706
X00068Y0069
X00042Y00690035
X00015
X-00031Y00690035
X-00044Y0069
X-00057Y00690035
X-0007Y0069
X-00044Y00655
X-000195Y00663035
X-00009Y00667
X00005Y00654
X00014Y00613
X-000035Y00595035
X000015Y00583285
X0003Y0059
X-00029Y00603035
X-00077Y00534498
X-00089Y00542499
X-000815Y00518035
X-000445Y00452035
X00157Y00683
X00141Y00727
X00217Y00764
X00245Y00713
X00286Y00811
X00318Y00833
X00362999Y00827998
X00397Y00821035
X004145
X00414Y00803035
Y00785535
Y00768035
Y00750535
Y00733035
Y00715535
Y00698035
Y00680535
Y00663035
Y00645535
Y00610535
X004315
X00427Y00623
X00449Y00610535
X004665
X00484
X005015
X00519
X005365
X00554
X005715
X00589
X006065
Y00628035
Y00645535
Y00663035
X006225Y00613035
X0064
X00675
X006925
X006965Y00648035
X00679
X006615
X006735Y00691035
Y00706035
Y00720285
X006995
Y00691035
X00646
Y00720285
X006065Y00733035
Y00750535
Y00768035
Y00785535
Y00803035
X00589
X005715
X00554
X005365
X00519
X005015
X00484
X004665
X00449
X004315
X00397Y00803535
X00358Y00729
X00332Y00722
X0030875Y00722748
X00314Y00691
X00315Y00643
X00331Y00616
X003785Y00586
X00396
X004135
X004085Y00518035
X00426
X00391
X003735
X00356
X003385
X00321
X00372Y00678
X004315Y00707035
X00449
X004665
X00484
X005015
X00519
X005365
X00554
X0051Y00733035
Y00750535
Y00768035
Y00785535
X00603Y00819
X00623Y00799
X00651Y00779
X0066525Y00565
X003135Y00755998
X00717Y00720285
X007345
X00752
X00755Y00741465
Y00759965
Y007775
Y00795
Y008125
Y0083
X00776
X007935
X00815Y00830035
Y00812535
Y00795035
Y00777535
Y0076
X007935Y00759965
X00776
X00784Y0074225
X0077125Y0072525
X007985Y00712
X00815Y00708
Y006905
Y00673
Y006555
Y00638
Y006205
Y00603
Y005855
Y00568
X00798Y00568
X007805
X00763
X007455
X007295Y00568
Y005855
Y00603
Y006205
Y00638
Y006555
Y00673
X0073Y00691035
X0071475Y00691
X0074Y00684035
X0075475Y0069125
X00769Y00684035
X0078575Y00698
X0078Y00648035
X007975
X007625
X00745
X00714
X0071Y00613035
X00745
X007625
X0078
X007975
X00815Y005505
Y0053075
X007985Y00519
X00781
X007635
X00746
X007295Y0053075
Y005505
X00815Y00726
X007935Y00795
X00776
Y00865
X007935Y00865
X00815Y00865035
Y00847535
Y00882535
Y00902
Y009195
Y00937
Y00956
Y009735
X007935Y00973465
X00776
X00755
Y00955965
Y00936965
Y00919465
Y00901965
Y008825
Y00865
Y008475
X00776Y00901965
X007935
Y00936965
X00776Y00937
X00734Y00905
X007165
X00714Y00973
X00734
X00644Y00972535
X00624
X00594Y00973
X00539Y00974
X00492Y00972
X0049125Y00954
X004915Y0094425
X004915Y009345
X0049175Y0091675
X00533Y00903
X0055
X0056625
X005775Y009
X0056625Y008695
X0055
X00533
X00591
X0059575Y0084675
X005775Y0084625
X0066Y00861
X00652Y00908
X00681Y00905
X00699
X0045Y00901
X0043
X0040325Y00898
X00389Y0091
X003665Y00903
X0037125Y009245
X0038Y008885
X00367Y00876
X00364Y00855
X0038Y00845
X00396Y00848
X00403Y00867
X0043Y008675
X0045
X00402Y0097775
X0038825Y009645
X00371Y00977
X-00385Y00972
X-004358
X-004866
Y00862
X-004358
X-00385
X-005374
X-005882
X-00639
X-006898
X-007406
X-007914
X-008422
Y00972
X-007914
X-0074
X-00639
X-005882
X-005374
X-00893Y00862
T02
X-0056975Y0068125
X-0055875Y0069225
X-0054775Y0068125
Y0070325
X-0056975
T03
X-008765Y00543998
Y00588998
T04
X00375Y00948
X004004
T05
X-003585Y00648285
X-002061
T06
X-008515Y00531498
Y00601498
T07
X0068Y00942919
X-0068Y00942855
M30
